PathFileType	4	(X/Y/Z)	Kaydara																																																																																																																									
DataRate	CameraRate	NumFrames	NumMarkers	Units	OrigDataRate	OrigDataStartFrame	OrigNumFrames																																																																																																																					
30	30	6	41	mm	30	25	198																																																																																																																					
Frame#	Time	NABA_LFHD			NABA_RFHD			NABA_LBHD			NABA_RBHD			NABA_LFTShould			NABA_RFTShould			NABA_LRRShould			NABA_RRRShould			NABA_T10			NABA_STRN			NABA_TRUN			NABA_LSHO			NABA_LUPA			NABA_LELB			NABA_LFRM			NABA_LWRA			NABA_LWRB			NABA_LFIN			NABA_RSHO			NABA_RUPA			NABA_RELB			NABA_RFRM			NABA_RWRA			NABA_RWRB			NABA_RFIN			NABA_LFWT			NABA_RFWT			NABA_LBWT			NABA_RBWT			NABA_LTHI			NABA_LKNE			NABA_LSHN			NABA_LANK			NABA_LHEE			NABA_LTOE			NABA_RTHI			NABA_RKNE			NABA_RSHN			NABA_RANK			NABA_RHEE			NABA_RTOE		
		X1	Y1	Z1	X2	Y2	Z2	X3	Y3	Z3	X4	Y4	Z4	X5	Y5	Z5	X6	Y6	Z6	X7	Y7	Z7	X8	Y8	Z8	X9	Y9	Z9	X10	Y10	Z10	X11	Y11	Z11	X12	Y12	Z12	X13	Y13	Z13	X14	Y14	Z14	X15	Y15	Z15	X16	Y16	Z16	X17	Y17	Z17	X18	Y18	Z18	X19	Y19	Z19	X20	Y20	Z20	X21	Y21	Z21	X22	Y22	Z22	X23	Y23	Z23	X24	Y24	Z24	X25	Y25	Z25	X26	Y26	Z26	X27	Y27	Z27	X28	Y28	Z28	X29	Y29	Z29	X30	Y30	Z30	X31	Y31	Z31	X32	Y32	Z32	X33	Y33	Z33	X34	Y34	Z34	X35	Y35	Z35	X36	Y36	Z36	X37	Y37	Z37	X38	Y38	Z38	X39	Y39	Z39	X40	Y40	Z40	X41	Y41	Z41
																																																																																																																												
25	0.81	251.41743	1553.51715	-1834.70032	81.96706	1520.27435	-1820.47394	260.91364	1596.9873	-1953.02444	45.7443	1558.75046	-1908.03253	240.1515	1340.8046	-1959.51324	104.94205	1337.46429	-1950.00778	232.98149	1389.36844	-2078.6882	85.20747	1386.95938	-2062.88528	164.9078	1221.55884	-2137.2757	176.10134	1289.03076	-1905.17868	180.23287	1194.5443	-1851.14929	335.44685	1358.74573	-2019.57001	385.00359	1119.97292	-2054.87305	395.44197	1036.23795	-2028.56583	386.20003	965.20164	-2050.09491	339.01249	815.85876	-1974.14825	409.94781	818.00293	-1978.37616	392.45861	758.40584	-1934.79095	8.6542	1358.21503	-1993.41736	-43.67611	1157.4099	-2061.85059	-67.97067	1033.34717	-2019.17023	-73.34827	939.45389	-2014.75571	-9.00088	810.78506	-1946.04797	-83.57745	801.89163	-1943.02658	-66.87403	762.13593	-1913.50983	301.15513	950.14168	-1952.37534	33.97624	951.87416	-1943.9151	237.47208	1024.78989	-2115.13748	78.45274	1038.01552	-2112.14081	298.6549	657.02881	-2100.65796	298.12693	505.84724	-2049.04785	249.06116	308.96204	-2030.84076	280.02201	158.90559	-2100.32928	222.70351	110.2667	-2154.67072	258.3342	77.99108	-1971.29883	28.04888	674.36783	-2100.82184	49.90211	507.04258	-2000.43839	58.88352	336.85928	-2026.3707	49.3264	144.22586	-2090.70847	101.74351	98.46231	-2159.44748	63.12812	76.82679	-1967.69501
26	0.843	252.37219	1560.79575	-1842.54761	82.82588	1527.5853	-1825.34393	260.77	1598.93173	-1962.40143	45.80759	1562.27692	-1914.44351	240.32873	1341.31027	-1959.59656	105.08881	1338.17078	-1950.43839	233.11026	1388.38959	-2079.33014	85.19339	1386.2973	-2063.75565	164.97742	1220.10948	-2136.46439	175.99215	1290.09903	-1905.17807	180.10929	1195.8445	-1850.16647	335.56458	1358.33206	-2019.8497	384.87812	1119.80103	-2054.76822	395.68752	1036.22063	-2028.39432	386.62426	965.46066	-2050.37689	340.78957	815.21118	-1975.58899	411.50021	817.88063	-1979.96872	394.41574	757.64435	-1936.71631	8.46761	1358.19168	-1994.01718	-43.04322	1157.50107	-2062.56714	-66.92084	1033.07739	-2020.07156	-72.47439	939.52393	-2016.71402	-8.64019	809.97932	-1949.24774	-83.11364	801.32652	-1946.4592	-66.32341	761.04973	-1917.37671	300.82314	950.17433	-1949.69849	33.66821	951.78246	-1942.11975	237.50881	1024.75937	-2112.98187	78.47936	1037.85027	-2110.33676	298.89189	657.29225	-2099.1539	298.26075	505.90752	-2047.9747	249.07288	308.92269	-2030.26932	280.1103	158.97646	-2100.51193	222.94662	110.52706	-2154.56161	258.403	77.95425	-1971.23627	28.08852	674.24294	-2099.17328	50.13852	506.93409	-1999.11209	59.08204	336.61716	-2025.41763	49.4706	144.2436	-2090.36835	101.76476	98.64697	-2159.27811	63.19437	76.85409	-1967.65717
27	0.877	252.0183	1566.77444	-1848.99567	83.53566	1534.60098	-1830.54153	260.87013	1600.35812	-1971.38641	46.17136	1565.44571	-1920.9137	240.64709	1341.9281	-1959.58038	104.69729	1339.14627	-1949.83749	233.64708	1387.59186	-2080.39322	85.5537	1385.57465	-2064.73434	165.35089	1218.59558	-2135.43198	176.11252	1291.27457	-1904.49875	179.74937	1197.50023	-1849.10477	336.04591	1358.12378	-2020.45578	384.87236	1119.62593	-2054.60709	396.2989	1036.44775	-2028.13126	387.2847	965.8226	-2050.38269	342.32494	816.12297	-1974.10187	413.03455	817.97104	-1980.58197	396.41251	757.48123	-1937.61978	8.51684	1358.36884	-1994.87564	-42.18716	1157.87888	-2063.22769	-66.13816	1033.17635	-2020.91644	-71.5369	939.70612	-2017.8418	-7.64916	810.06088	-1950.43869	-82.16557	801.28014	-1947.95486	-65.35891	760.86212	-1918.99124	300.68714	949.94095	-1947.14462	33.68404	951.6703	-1940.59341	237.90077	1024.56825	-2110.7309	78.81029	1037.61902	-2108.61832	299.48627	657.27051	-2097.20337	298.28882	505.75386	-2046.58829	249.04058	308.78805	-2029.74869	280.21236	158.9849	-2100.28763	223.09608	110.648	-2154.49036	258.43723	77.93997	-1971.2738	28.11646	674.20097	-2097.52441	50.48969	506.90041	-1997.66098	59.68036	336.56445	-2024.77753	49.47756	144.27912	-2089.96384	101.79673	98.86851	-2159.14017	63.25964	76.86107	-1967.59201
28	0.91	253.98422	1573.11111	-1856.88736	83.99209	1540.91827	-1835.95367	261.18786	1601.25626	-1979.40216	46.48581	1568.25012	-1927.24792	241.03382	1342.34528	-1959.41315	105.49051	1339.79156	-1951.02356	234.43455	1386.68915	-2080.9285	86.09339	1385.0174	-2065.59372	166.00414	1217.33971	-2134.4931	176.02373	1292.09778	-1903.88062	179.30027	1198.82736	-1848.10394	336.61819	1357.78748	-2020.19104	385.25253	1119.2981	-2054.09012	397.2147	1036.53038	-2027.31049	388.07625	966.00296	-2049.73923	343.69545	816.60431	-1972.14828	414.49673	818.08868	-1980.15045	398.31776	757.50954	-1937.01523	8.73322	1358.54004	-1995.65521	-41.38648	1158.19031	-2063.83469	-65.74033	1033.54599	-2021.80023	-70.58196	939.67155	-2018.05573	-6.34824	810.82657	-1949.56604	-80.77738	801.57127	-1947.66922	-64.0353	761.31531	-1918.40424	300.52378	949.80759	-1944.74609	33.58994	951.64284	-1939.0538	238.57601	1024.39453	-2108.57986	79.43211	1037.48093	-2107.13898	299.79492	657.37015	-2095.49896	298.46308	505.67589	-2045.49011	249.091	308.71876	-2029.18732	280.23518	159.10995	-2099.97955	223.10425	110.78619	-2154.35959	258.40048	77.92961	-1971.22406	28.42874	674.25644	-2096.27441	50.71452	506.83247	-1996.65543	59.8225	336.37173	-2024.04999	49.59924	144.33078	-2089.79294	101.83799	98.99577	-2159.08768	63.26669	76.86787	-1967.58453
29	0.943	253.56121	1577.21222	-1862.15073	84.45959	1546.23535	-1840.87006	261.6268	1601.75522	-1986.13876	46.98654	1570.6012	-1933.07602	241.31899	1342.58438	-1959.08066	105.97754	1340.40344	-1950.79727	235.14074	1385.93307	-2081.20361	86.75783	1384.38293	-2066.27731	166.82486	1216.19202	-2133.63815	176.00723	1292.715	-1903.45734	179.09159	1199.72694	-1847.21054	337.18971	1357.69348	-2019.95697	386.43085	1119.39484	-2052.47955	398.20023	1036.4637	-2025.03723	389.25274	966.19537	-2047.88406	344.92966	816.34895	-1970.55557	416.02505	818.14423	-1978.80585	400.2697	757.50221	-1935.76675	9.0603	1358.55484	-1996.4183	-40.65877	1158.23586	-2064.15741	-65.35563	1033.49709	-2021.8013	-69.75485	939.41826	-2017.23343	-5.03144	811.73233	-1947.20001	-79.32493	801.90956	-1945.31952	-62.37822	762.23785	-1915.66772	300.6208	949.65553	-1942.49252	33.61352	951.64955	-1937.72049	239.32245	1024.25499	-2106.62354	80.17394	1037.26776	-2105.84442	300.08099	657.37923	-2093.92838	298.71773	505.58056	-2044.45206	249.22951	308.60241	-2028.62213	280.37687	159.1419	-2099.6463	223.23503	110.91359	-2154.22546	258.44595	77.8764	-1971.18942	29.05198	674.30923	-2095.31891	50.73045	506.77326	-1995.71976	59.9234	336.25496	-2023.39508	49.66341	144.38468	-2089.64401	101.96115	99.09594	-2158.92166	63.24194	76.87529	-1967.56119
30	0.977	256.87397	1582.6561	-1866.97556	84.68077	1550.67108	-1845.28427	262.17867	1601.9812	-1991.75476	47.37922	1572.56989	-1938.23639	241.69783	1342.81021	-1958.73947	106.20949	1340.48065	-1951.64185	235.99205	1385.34012	-2081.33072	87.44197	1383.90671	-2066.86752	167.70168	1215.3286	-2132.87994	176.15641	1293.09479	-1903.17322	178.99803	1200.37292	-1846.51382	337.77107	1357.55539	-2019.3782	387.42802	1118.99483	-2049.66827	398.8578	1036.46439	-2021.90475	390.46379	966.41777	-2045.16586	346.55476	815.85579	-1968.54935	417.81845	818.24242	-1976.56464	402.32819	757.35657	-1933.75885	9.45975	1358.4169	-1997.07535	-39.99451	1157.92213	-2064.12689	-65.02861	1033.25958	-2021.18164	-69.05303	938.96622	-2015.38055	-3.56831	812.72964	-1943.35953	-77.70975	802.37282	-1941.37558	-60.64627	763.42239	-1911.18179	300.79252	949.5993	-1940.448	33.66963	951.60774	-1936.78085	240.08263	1024.07585	-2104.89655	80.87208	1037.11723	-2104.84863	300.59916	657.48749	-2092.44034	299.01829	505.56953	-2043.50632	249.39028	308.53327	-2028.23929	280.41348	159.11497	-2098.76709	223.37406	111.08179	-2154.13177	258.47761	77.83932	-1971.14059	29.14341	674.67117	-2094.8555	51.00845	506.71478	-1994.72885	60.23591	336.10435	-2022.63672	49.79773	144.4608	-2089.43695	102.16426	99.20803	-2158.75427	63.28463	76.8814	-1967.53098
